# AST/ASF file generated using VICON BodyLanguage
# -----------------------------------------------
:version 1.10
:name VICON
:units
  mass 1.0
  length 0.45
  angle deg
:documentation
   .ast/.asf automatically generated from VICON data using
   VICON BodyBuilder and BodyLanguage model FoxedUp or BRILLIANT.MOD
:root
   order TX TY TZ RX RY RZ
   axis XYZ
   position 0 0 0  
   orientation 0 0 0 
:bonedata
  begin
     id 1 
     name lhipjoint
     direction 0.578396 -0.714046 0.394458 
     length 2.21935 
     axis 0 0 0  XYZ
  end
  begin
     id 2 
     name lfemur
     direction 0.34202 -0.939693 0  
     length 6.39105  
     axis 0 0 20  XYZ
    dof rx ry rz
    limits (-160.0 20.0)
           (-70.0 70.0)
           (-60.0 70.0)
  end
  begin
     id 3 
     name ltibia
     direction 0.34202 -0.939693 0   
     length 6.99037   
     axis 0 0 20   XYZ
    dof rx
    limits (-10.0 170.0)
  end
  begin
     id 4 
     name lfoot
     direction 0.0582372 -0.160005 0.985397   
     length 2.06111   
     axis -90 7.62852e-016 20   XYZ
    dof rx rz
    limits (-45.0 90.0)
           (-70.0 20.0)
  end
  begin
     id 5 
     name ltoes
     direction 1.53556e-011 -4.21875e-011 1   
     length 1.04074   
     axis -90 7.62852e-016 20   XYZ
    dof rx
    limits (-90.0 20.0)
  end
  begin
     id 6 
     name rhipjoint
     direction -0.558179 -0.726269 0.40121   
     length 2.182  
     axis 0 0 0  XYZ 
  end
  begin
     id 7 
     name rfemur
     direction -0.34202 -0.939693 0   
     length 6.51172   
     axis 0 0 -20   XYZ
    dof rx ry rz
    limits (-160.0 20.0)
           (-70.0 70.0)
           (-70.0 60.0)
  end
  begin
     id 8 
     name rtibia
     direction -0.34202 -0.939693 0   
     length 7.02607   
     axis 0 0 -20   XYZ
    dof rx
    limits (-10.0 170.0)
 end
 begin
     id 9 
     name rfoot
     direction -0.0788856 -0.216737 0.973038   
     length 1.96734  
     axis -90 -7.62852e-016 -20   XYZ
    dof rx rz
    limits (-45.0 90.0)
           (-20.0 70.0)
  end
  begin
     id 10 
     name rtoes
     direction -1.53567e-011 -4.21783e-011 1   
     length 0.990825   
     axis -90 -7.62852e-016 -20   XYZ
    dof rx
    limits (-90.0 20.0)
  end
  begin
     id 11 
     name lowerback
     direction 0.00668177 0.999323 -0.0361741   
     length 1.7655   
     axis 0 0 0   XYZ
    dof rx ry rz
    limits (-20.0 45.0)
           (-30.0 30.0)
           (-30.0 30.0)
  end
  begin
     id 12 
     name upperback
     direction -0.00222086 0.99851 0.0545167   
     length 1.74912   
     axis 0 0 0   XYZ
    dof rx ry rz
    limits (-20.0 45.0)
           (-30.0 30.0)
           (-30.0 30.0)
  end
  begin
     id 13 
     name thorax
     direction -0.00733971 0.997496 0.0703443   
     length 1.75715   
     axis 0 0 0   XYZ
    dof rx ry rz
    limits (-20.0 45.0)
           (-30.0 30.0)
           (-30.0 30.0)
  end
  begin
     id 14 
     name lowerneck
     direction 0.0279797 0.994795 0.0979765   
     length 1.46939   
     axis 0 0 0   XYZ
    dof rx ry rz
    limits (-20.0 45.0)
           (-30.0 30.0)
           (-30.0 30.0)
  end
  begin
     id 15 
     name upperneck
     direction 0.00339187 0.976776 -0.214238   
     length 1.48018   
     axis 0 0 0   XYZ
    dof rx ry rz
    limits (-20.0 45.0)
           (-30.0 30.0)
           (-30.0 30.0)
  end
  begin
     id 16
     name head
     direction -0.00263506 0.996603 -0.0823096  
     length 1.4976  
     axis 0 0 0   XYZ
    dof rx ry rz
    limits (-20.0 45.0)
           (-30.0 30.0)
           (-30.0 30.0)
  end
  begin
     id 17 
     name lclavicle
     direction 0.894044 0.44508 -0.0508781  
     length 3.03024  
     axis 0 0 0   XYZ
    dof ry rz
    limits (-20.0 10.0)
           (0.0 20.0)
  end
  begin
     id 18 
     name lhumerus
     direction 1 -4.48961e-011 -2.39475e-018   
     length 4.4661   
     axis 180 -30 -90   XYZ
    dof rx ry rz
    limits (-60.0 90.0)
           (-90.0 90.0)
           (-90.0 90.0)
  end
  begin
     id 19
     name lradius
     direction 1 -4.48961e-011 9.29328e-028   
     length 3.41414   
     axis 180 -30 -90   XYZ
    dof rx
    limits (-10.0 170.0)
  end
  begin
     id 20
     name lwrist
     direction 1 -4.48985e-011 1.53461e-026   
     length 1.70707   
     axis -1.09697e-014 90 90   XYZ
    dof ry
    limits (-180.0 0.0)
 end
  begin
     id 21 
     name lhand
     direction 1 -4.48966e-011 3.06923e-026   
     length 0.328298   
     axis -1.95843e-014 90 90   XYZ
    dof rx rz
    limits (-90.0 90.0)
           (-45.0 45.0)
  end
  begin
     id 22 
     name lfingers
     direction 1 -4.48893e-011 6.13845e-026   
     length 0.264682   
     axis -3.91686e-014 90 90   XYZ
    dof rx
    limits (0.0 90.0)
  end
  begin
     id 23
     name lthumb
     direction 0.707107 -6.34876e-011 0.707107   
     length 0.380032   
     axis -90 45 2.85299e-015   XYZ
    dof rx rz
    limits (-45.0 45.0)
           (-45.0 45.0)
  end
  begin
     id 24 
     name rclavicle
     direction -0.936955 0.347862 -0.0332887   
     length 3.26927  
     axis 0 0 0   XYZ 
    dof ry rz
    limits (-10.0 20.0)
           (-20.0 0.0)
  end
  begin
     id 25 
     name rhumerus
     direction -1 -4.4896e-011 1.78637e-018  
     length 4.40431   
     axis 180 30 90   XYZ
    dof rx ry rz
    limits (-90.0 60.0)
           (-90.0 90.0)
           (-90.0 90.0)
  end
  begin
     id 26 
     name rradius
     direction -1 -4.48955e-011 9.34036e-027   
     length 3.04688   
     axis 180 30 90   XYZ
    dof rx
    limits (-10.0 170.0)
  end
  begin
     id 27 
     name rwrist
     direction -1 -4.49011e-011 1.53461e-026   
     length 1.52344   
     axis -1.09697e-014 -90 -90   XYZ
    dof ry
    limits (-180.0 0.0)
  end
  begin
     id 28
     name rhand
     direction -1 -4.48834e-011 3.06923e-026   
     length 0.500489   
     axis -1.95843e-014 -90 -90   XYZ
    dof rx rz
    limits (-90.0 90.0)
           (-45.0 45.0)
  end
  begin
     id 29
     name rfingers
     direction -1 -4.48967e-011 6.13845e-026   
     length 0.403507   
     axis -3.91686e-014 -90 -90   XYZ
    dof rx
    limits (0.0 90.0)
  end
  begin
     id 30
     name rthumb
     direction -0.707107 -6.34826e-011 0.707107   
     length 0.579358   
     axis -90 -45 -2.85299e-015   XYZ
    dof rx rz
    limits (-45.0 45.0)
           (-45.0 45.0)
  end
:hierarchy
  begin
    root lhipjoint rhipjoint lowerback
    lhipjoint lfemur
    lfemur ltibia
    ltibia lfoot
    lfoot ltoes
    rhipjoint rfemur
    rfemur rtibia
    rtibia rfoot
    rfoot rtoes
    lowerback upperback
    upperback thorax
    thorax lowerneck lclavicle rclavicle
    lowerneck upperneck
    upperneck head
    lclavicle lhumerus
    lhumerus lradius
    lradius lwrist
    lwrist lhand lthumb
    lhand lfingers
    rclavicle rhumerus
    rhumerus rradius
    rradius rwrist
    rwrist rhand rthumb
    rhand rfingers
  end

#!OML:ASF H:\IndianDance\Patient Classification 1\Patient 1\Session 1\dancer.ASF
:FULLY-SPECIFIED
:DEGREES
1203
root -1.31594 14.2785 15.2082 -172.139 -7.26781 -181.628
lowerback 6.24529 2.50395 -3.62535
upperback -0.021713 3.06779 5.75184
thorax -4.05556 1.5678 7.80832
lowerneck -15.7461 -5.06858 -6.52063
upperneck 34.2457 -14.7382 12.36
head 16.4924 -6.66058 3.32025
rclavicle 2.98177e-014 2.06736e-014
rhumerus -24.0991 75.2667 -56.964
rradius 107.557
rwrist -25.4412
rhand -35.5524 27.4501
rfingers 7.12502
rthumb -8.67788 -2.35149
lclavicle 2.98177e-014 2.06736e-014
lhumerus 46.919 15.7723 4.3716
lradius 62.5205
lwrist 53.1502
lhand -35.0678 24.348
lfingers 7.12502
lthumb -8.21016 54.1685
rfemur -35.6221 -24.2096 22.4323
rtibia 90.0228
rfoot 3.69396 4.06049
rtoes 7.48224
lfemur -37.119 14.2494 -34.4905
ltibia 56.3634
lfoot -25.0239 10.0711
ltoes 19.7724
1204
root -1.33582 14.3074 15.2191 -171.915 -7.02485 -181.643
lowerback 5.93837 2.50157 -3.68073
upperback -0.0356524 3.07138 5.63676
thorax -3.89343 1.56998 7.72315
lowerneck -15.814 -4.84166 -6.48392
upperneck 34.6245 -14.6918 12.5636
head 16.725 -6.63361 3.41708
rclavicle -4.09496e-014 -7.95139e-014
rhumerus -21.0024 75.1945 -55.2619
rradius 109.294
rwrist -26.6892
rhand -35.3624 26.7338
rfingers 7.12502
rthumb -8.49456 -3.07533
lclavicle -4.09496e-014 -7.95139e-014
lhumerus 46.5218 15.1882 3.65108
lradius 62.9036
lwrist 53.3327
lhand -35.3901 24.8566
lfingers 7.12502
lthumb -8.52128 54.6646
rfemur -34.0189 -24.1973 23.4919
rtibia 88.4756
rfoot 5.15052 6.8068
rtoes 6.99262
lfemur -37.1683 14.4947 -34.6439
ltibia 55.8594
lfoot -24.6982 9.7623
ltoes 19.8138
1205
root -1.35591 14.3363 15.2292 -171.662 -6.80024 -181.616
lowerback 5.60032 2.5036 -3.66836
upperback -0.0735886 3.08634 5.51467
thorax -3.73648 1.577 7.59104
lowerneck -15.88 -4.6337 -6.43607
upperneck 34.9689 -14.6537 12.747
head 16.9402 -6.60968 3.50254
rclavicle 9.93923e-015 -1.74931e-014
rhumerus -17.4515 74.9428 -53.109
rradius 110.902
rwrist -27.871
rhand -35.1849 25.9987
rfingers 7.12502
rthumb -8.32317 -3.8173
lclavicle 9.93923e-015 -1.74931e-014
lhumerus 46.1711 14.61 2.98235
lradius 63.3317
lwrist 53.495
lhand -35.711 25.3406
lfingers 7.12502
lthumb -8.83089 55.1358
rfemur -32.4254 -24.2364 24.6063
rtibia 86.6184
rfoot 6.38195 9.29452
rtoes 6.86576
lfemur -37.2641 14.7137 -34.7593
ltibia 55.3753
lfoot -24.3844 9.43375
ltoes 19.9038
1206
root -1.37623 14.3656 15.2387 -171.378 -6.59313 -181.55
lowerback 5.2353 2.51271 -3.59292
upperback -0.13574 3.1151 5.38538
thorax -3.58772 1.59033 7.4146
lowerneck -15.9455 -4.44631 -6.37342
upperneck 35.2777 -14.6259 12.9101
head 17.1369 -6.58866 3.57484
rclavicle -9.14409e-015 -1.59028e-014
rhumerus -13.6388 74.4839 -50.6986
rradius 112.362
rwrist -28.981
rhand -35.0382 25.2643
rfingers 7.12502
rthumb -8.18168 -4.5573
lclavicle -9.14409e-015 -1.59028e-014
lhumerus 45.8772 14.0484 2.35557
lradius 63.7939
lwrist 53.6472
lhand -36.0263 25.7691
lfingers 7.12502
lthumb -9.13513 55.5513
rfemur -30.8494 -24.3234 25.7576
rtibia 84.4698
rfoot 7.34595 11.3552
rtoes 7.03432
lfemur -37.406 14.8986 -34.842
ltibia 54.9077
lfoot -24.0677 9.11506
ltoes 19.9542
1207
root -1.39685 14.3951 15.2479 -171.063 -6.40201 -181.45
lowerback 4.8475 2.53016 -3.45593
upperback -0.219387 3.15832 5.24552
thorax -3.44634 1.61028 7.19142
lowerneck -16.0095 -4.28268 -6.30418
upperneck 35.5403 -14.6104 13.0641
head 17.311 -6.57069 3.63939
rclavicle 3.45885e-014 3.49861e-014
rhumerus -9.70598 73.8126 -48.1625
rradius 113.7
rwrist -30.0437
rhand -34.9416 24.499
rfingers 7.12502
rthumb -8.08842 -5.32616
lclavicle 3.45885e-014 3.49861e-014
lhumerus 45.6332 13.5072 1.7976
lradius 64.2961
lwrist 53.7564
lhand -36.3303 26.1135
lfingers 7.12502
lthumb -9.42853 55.8826
rfemur -29.2964 -24.4598 26.9369
rtibia 82.0372
rfoot 7.9796 12.857
rtoes 7.0595
lfemur -37.5937 15.0413 -34.897
ltibia 54.4557
lfoot -23.7464 8.81872
ltoes 19.9654
1208
root -1.41754 14.4252 15.2572 -170.721 -6.22601 -181.323
lowerback 4.44401 2.55479 -3.264
upperback -0.32102 3.21303 5.09372
thorax -3.3121 1.63537 6.92456
lowerneck -16.0692 -4.14292 -6.2317
upperneck 35.7498 -14.6042 13.2128
head 17.4573 -6.5542 3.69869
rclavicle -2.8625e-014 1.59028e-015
rhumerus -5.82615 72.9187 -45.6846
rradius 114.89
rwrist -31.0632
rhand -34.8708 23.7213
rfingers 7.12502
rthumb -8.0201 -6.10651
lclavicle -2.8625e-014 1.59028e-015
lhumerus 45.4416 12.9944 1.3068
lradius 64.822
lwrist 53.8158
lhand -36.6304 26.3985
lfingers 7.12502
lthumb -9.71804 56.1543
rfemur -27.7744 -24.6135 28.1192
rtibia 79.3415
rfoot 8.29132 13.6448
rtoes 7.07129
lfemur -37.822 15.1394 -34.9301
ltibia 54.0184
lfoot -23.4186 8.55773
ltoes 19.924
1209
root -1.4381 14.4546 15.2669 -170.354 -6.05722 -181.177
lowerback 4.02936 2.58127 -3.03406
upperback -0.436239 3.27024 4.93428
thorax -3.18258 1.66114 6.62957
lowerneck -16.1222 -4.02041 -6.16879
upperneck 35.9071 -14.5929 13.3601
head 17.574 -6.53484 3.75974
rclavicle 7.95139e-016 -1.43125e-014
rhumerus -2.07703 71.8226 -43.3523
rradius 115.932
rwrist -32.0521
rhand -34.8165 22.9315
rfingers 7.12502
rthumb -7.96769 -6.89835
lclavicle 7.95139e-016 -1.43125e-014
lhumerus 45.2762 12.5143 0.880832
lradius 65.3643
lwrist 53.8187
lhand -36.9321 26.6397
lfingers 7.12502
lthumb -10.0091 56.3817
rfemur -26.2706 -24.784 29.3069
rtibia 76.3838
rfoot 8.2062 13.7363
rtoes 6.61853
lfemur -38.094 15.1979 -34.9501
ltibia 53.6041
lfoot -23.088 8.33231
ltoes 19.8687
1210
root -1.45817 14.4829 15.2772 -169.969 -5.89182 -181.02
lowerback 3.60953 2.62116 -2.77994
upperback -0.566209 3.34465 4.76075
thorax -3.06451 1.69551 6.30645
lowerneck -16.1476 -3.92325 -6.10292
upperneck 35.9995 -14.5964 13.513
head 17.6511 -6.51965 3.81887
rclavicle 8.15017e-015 2.06736e-014
rhumerus 1.32377 70.5227 -41.359
rradius 116.837
rwrist -33.015
rhand -34.8122 22.1732
rfingers 7.12502
rthumb -7.96348 -7.65675
lclavicle 8.15017e-015 2.06736e-014
lhumerus 45.1754 12.0688 0.521715
lradius 65.9085
lwrist 53.7682
lhand -37.2431 26.8419
lfingers 7.12502
lthumb -10.3092 56.5692
rfemur -24.7804 -24.93 30.4733
rtibia 73.1989
rfoot 7.82589 13.1217
rtoes 6.39493
lfemur -38.4084 15.2194 -34.9615
ltibia 53.2224
lfoot -22.7621 8.13308
ltoes 19.867
1211
root -1.47757 14.5097 15.2887 -169.576 -5.72684 -180.851
lowerback 3.19727 2.64767 -2.50742
upperback -0.693558 3.39839 4.59469
thorax -2.94361 1.71843 5.98434
lowerneck -16.1996 -3.83098 -6.0757
upperneck 36.0577 -14.5622 13.661
head 17.7122 -6.49001 3.89017
rclavicle -1.86858e-014 -4.92986e-014
rhumerus 4.63353 69.0786 -39.4827
rradius 117.597
rwrist -33.9626
rhand -34.8411 21.4489
rfingers 7.12502
rthumb -7.99141 -8.38
lclavicle -1.86858e-014 -4.92986e-014
lhumerus 45.038 11.6808 0.199296
lradius 66.4493
lwrist 53.6623
lhand -37.5612 27.0214
lfingers 7.12502
lthumb -10.616 56.7332
rfemur -23.2921 -25.0164 31.5988
rtibia 69.8474
rfoot 7.17955 11.8886
rtoes 6.71628
lfemur -38.7626 15.2182 -34.9618
ltibia 52.8835
lfoot -22.4363 7.98166
ltoes 19.8211
